<svg xmlns="http://www.w3.org/2000/svg" viewBox="0 0 465.3 78.39"><defs><style>.cls-1{fill:#ffffff;}.cls-2{fill:#ce003c;}.cls-3{fill:#f39900;}.cls-4{fill:#fff;}.cls-5{fill:#004c99;}</style></defs><title>Recurso 1</title><g id="Capa_2" data-name="Capa 2"><g id="_Capa_" data-name="&lt;Capa&gt;"><path class="cls-1" d="M300.26,25.67c1-5.91-1.68-7.36-6.39-7.36h-5.69c-3.6,0-4.5.26-5.09,3.65l-2.51,14.32h8.63a6.2,6.2,0,0,0,4.93-1.85,7.1,7.1,0,0,0,1.14-1.78c.25-.54.46-1.09.64-1.61,0-.06.11-.27.14-.33l2.34,0-2.73,15.64h-2.38C294,42.2,292.8,40,288.61,40h-8.69l-2.81,16.12c-.7,3.94.09,4,3.69,4h8.09c4,0,6.27-1.51,7.69-7.05l2.35,0L296.81,64H267.39l6.88-39.35c.64-3.64.87-5.35.21-6.32s-2.06-1.21-5-1.71l-.8-.15.39-1.87h35.25l-1.72,11.12Z"/><path class="cls-1" d="M314.8,42l2.64,1.65c3.6,2.3,7.18,5.18,6.18,10.86-1.26,7.27-7.78,10.2-15,10.2a32.34,32.34,0,0,1-5.65-.49c-1.45-.26-2.91-.66-3.7-.88l1.13-6.08c2.19,1.71,5.13,3.92,9.07,3.92,4.53,0,6.53-2.29,7-4.75a4.47,4.47,0,0,0-1.68-4.21,17.26,17.26,0,0,0-2.24-1.7c-.84-.55-1.74-1.09-2.64-1.65-3.59-2.26-7.23-4.94-6.33-10.08.94-5.35,5.38-9.91,14.05-9.91a26,26,0,0,1,5,.51c1.09.22,2,.46,2.61.62l.54.15-1,5.88c-.52-.4-.87-.69-1.31-1a16.09,16.09,0,0,0-1.75-1.16,10.35,10.35,0,0,0-5.12-1.46c-2.32,0-5.12.87-5.64,3.88a4.22,4.22,0,0,0,1.7,4.05A18.24,18.24,0,0,0,314.8,42"/><path class="cls-1" d="M334.56,29.72l1-5.69,8.82-6.78-2.18,12.47h9.55L351.17,33h-9.55L337.94,54c-.9,5.1-.92,7.18,4.52,7.18a13.73,13.73,0,0,0,2.82-.3l-.54,3.23a28.59,28.59,0,0,1-5,.6c-7,0-11.08-1.12-9.59-9.6L334,33h-5.69l.57-3.24Z"/><path class="cls-1" d="M367.77,44.82l.72-3.59c.84-4.71,1.62-9.51-2.73-9.51s-5.59,3.75-6.17,6.9c0,.1-.06.4-.08.5l-9.06,0c1.79-5.16,5.17-10.24,15.67-10.24s11.19,5.47,9.92,12.73L372.15,64h-7.62l.69-4c-.48.48-.78.77-1.13,1.09a17,17,0,0,1-2.16,1.7,12.2,12.2,0,0,1-6.76,2c-5.76,0-9.23-4.16-8.46-8.57C348.5,45.91,362.88,45,367.77,44.82M355.27,55c-.58,3.32.68,5.5,3.22,5.5,4.11,0,7.3-3.77,8.16-8.69l.7-4c-3.16.11-11,.72-12.08,7.22m0,0c-.58,3.32.68,5.5,3.22,5.5,4.11,0,7.3-3.77,8.16-8.69l.7-4c-3.16.11-11,.72-12.08,7.22m12.5-10.17.72-3.59c.84-4.71,1.62-9.51-2.73-9.51s-5.59,3.75-6.17,6.9c0,.1-.06.4-.08.5l-9.06,0c1.79-5.16,5.17-10.24,15.67-10.24s11.19,5.47,9.92,12.73L372.15,64h-7.62l.69-4c-.48.48-.78.77-1.13,1.09a17,17,0,0,1-2.16,1.7,12.2,12.2,0,0,1-6.76,2c-5.76,0-9.23-4.16-8.46-8.57C348.5,45.91,362.88,45,367.77,44.82"/><path class="cls-1" d="M415.28,12.56l-9,51.39h-7.62l.67-3.84c-.61.5-1,.86-1.53,1.23a20.62,20.62,0,0,1-2.44,1.6,13.55,13.55,0,0,1-6.7,1.81c-9.66,0-11.83-8.13-10.24-17.25,1.63-9.27,7-18.58,16.73-18.58,5.79,0,7.68,2.85,8.69,5.23a15.82,15.82,0,0,0,.42-1.95l.67-4c.47-2.83.95-5.57.95-5.57.86-4.9.06-6.13-3.64-6.42l-.75-.06.36-1.73ZM402,44.66c.73-4.15,1.19-11.48-5.52-11.48-6.55,0-8.67,8.2-9.57,13.36-1,5.71-1.81,14,4.81,14,6.84,0,9.08-8.93,9.76-12.85Z"/><path class="cls-1" d="M431.45,28.92c10.71,0,14.64,7.42,12.79,18-2.08,11.94-8.12,17.85-19,17.85-11.89,0-14.61-7.65-12.82-17.91,2.14-12.24,8.28-17.92,19-17.92m4.46,17.92c1.19-6.81,1.94-15.12-4.9-15.12-7.05,0-9.11,8.71-10.24,15.18-1.08,6.16-2.08,15.05,4.9,15.05s8.95-7.76,10.24-15.11m0,0c1.19-6.81,1.94-15.12-4.9-15.12-7.05,0-9.11,8.71-10.24,15.18-1.08,6.16-2.08,15.05,4.9,15.05s8.95-7.76,10.24-15.11m-4.46-17.92c10.71,0,14.64,7.42,12.79,18-2.08,11.94-8.12,17.85-19,17.85-11.89,0-14.61-7.65-12.82-17.91,2.14-12.24,8.28-17.92,19-17.92"/><path class="cls-1" d="M110.62,57.4c-.48,2.75,2.18,2.8,6.32,2.8,7.94,0,11.92-3.52,13.21-10.88,1.23-7.06-3.56-9.57-10-9.57h-6.49ZM140,26.56c-1.22,7-6.58,9.84-10.37,11.09,4.81,1.1,10.22,3.93,8.62,13.12-1.16,6.6-5.49,9.89-10.26,11.54a30.22,30.22,0,0,1-7.15,1.43c-2.26.21-4.32.21-5.82.21h-13.9L108,24.6c.63-3.64.88-5.36.22-6.32s-2.46-1.36-5.72-1.91l.33-1.82h21.79c8.35,0,17.13,2,15.37,12M114.36,36h4.7c6.23,0,11.29-2,12.54-9.12,1.12-6.42-2.08-8.56-8.67-8.56-4.36,0-5.52.21-6.12,3.65Z"/><path class="cls-1" d="M159.92,44.82l.74-3.59c.82-4.71,1.61-9.51-2.74-9.51s-5.57,3.65-6.15,6.79c0,.14-.08.48-.1.62l-9.06,0c1.79-5.16,5.16-10.24,15.67-10.24s11.19,5.47,9.92,12.73L164.3,64h-7.62l.7-4c-.48.48-.78.77-1.12,1.09a17.24,17.24,0,0,1-2.18,1.7,12.16,12.16,0,0,1-6.75,2c-5.77,0-9.23-4.16-8.46-8.57,1.79-10.27,16.16-11.19,21-11.36M147.42,55c-.58,3.32.68,5.5,3.22,5.5,4.12,0,7.3-3.77,8.16-8.69l.71-4c-3.16.11-10.95.72-12.09,7.22m0,0c-.58,3.32.68,5.5,3.22,5.5,4.12,0,7.3-3.77,8.16-8.69l.71-4c-3.16.11-10.95.72-12.09,7.22m12.5-10.17.74-3.59c.82-4.71,1.61-9.51-2.74-9.51s-5.57,3.65-6.15,6.79c0,.14-.08.48-.1.62l-9.06,0c1.79-5.16,5.16-10.24,15.67-10.24s11.19,5.47,9.92,12.73L164.3,64h-7.62l.7-4c-.48.48-.78.77-1.12,1.09a17.24,17.24,0,0,1-2.18,1.7,12.16,12.16,0,0,1-6.75,2c-5.77,0-9.23-4.16-8.46-8.57,1.79-10.27,16.16-11.19,21-11.36"/><path class="cls-1" d="M194.7,44.88c1-5.89,1.82-10.68-2.83-10.68S181.87,40.88,181,46L177.84,64h-7.62l4.3-24.62c.85-4.84,0-6.07-4.08-6.28l-.67,0,.33-1.73L184,28.88l-1.57,9c2.35-3.47,7.14-9,13.69-9,6.8,0,8.18,4.83,7.19,10.46L199,64h-7.63Z"/><path class="cls-1" d="M226.18,39.23c.57-3.36.51-7.51-3.74-7.51-4.8,0-6.83,5.22-8.06,12.26-1.88,10.77,2,16.51,8.52,16.51a28,28,0,0,0,6.87-.94l.35-.11L229.54,63a30.5,30.5,0,0,1-4.1,1.22,32.66,32.66,0,0,1-6.58.52c-10.34,0-15.17-7.34-13.24-18.42,1.75-10,7.15-17.41,17.69-17.41,7.91,0,12.62,3.89,11.91,9.67,0,.13-.06.49-.09.62Z"/><path class="cls-1" d="M253.18,28.92c10.71,0,14.65,7.42,12.8,18-2.09,11.94-8.12,17.85-19,17.85-11.89,0-14.61-7.65-12.82-17.91,2.14-12.24,8.28-17.92,19-17.92m4.46,17.92c1.19-6.81,1.95-15.12-4.89-15.12-7.05,0-9.12,8.71-10.25,15.18C241.43,53.06,240.42,62,247.41,62s9-7.76,10.23-15.11m0,0c1.19-6.81,1.95-15.12-4.89-15.12-7.05,0-9.12,8.71-10.25,15.18C241.43,53.06,240.42,62,247.41,62s9-7.76,10.23-15.11m-4.46-17.92c10.71,0,14.65,7.42,12.8,18-2.09,11.94-8.12,17.85-19,17.85-11.89,0-14.61-7.65-12.82-17.91,2.14-12.24,8.28-17.92,19-17.92"/><path class="cls-1" d="M458.76,41.23a6.54,6.54,0,1,1,6.54-6.53A6.54,6.54,0,0,1,458.76,41.23Zm0-12.07a5.54,5.54,0,1,0,5.54,5.54A5.54,5.54,0,0,0,458.76,29.16Z"/><path class="cls-1" d="M461.39,36.73c-.21-1-.38-1.84-1.66-2v0a2,2,0,0,0,1.81-2c0-2-1.86-2.22-3.28-2.22h-1.85v8.45h1.35V35.16h.5c1.31,0,1.56.78,1.74,1.51l.48,2.25h1.36Zm-3.13-2.38h-.5V31.27h.5c1.27,0,1.93.34,1.93,1.48C460.19,34.08,459.12,34.35,458.26,34.35Z"/><rect class="cls-2" width="78.37" height="78.39"/><polygon class="cls-3" points="78.37 41.31 45.14 13.35 45.13 13.35 45.13 65.33 78.37 65.33 78.37 41.31"/><path class="cls-4" d="M45.14,20.82V13.34a27.4,27.4,0,0,1-15.3,8.05v5.78l-5.6,2.45v5L0,44V65.33H50.89V18.42Z"/><path class="cls-2" d="M29.86,32.47l-4.61,1.74a1.55,1.55,0,0,0-1,1.32V39.1a1.38,1.38,0,0,1-1,1.23L0,49.31v5.46l23.39-9.1a1.56,1.56,0,0,0,.95-1.32V40.81a1.39,1.39,0,0,1,.91-1.22l4.61-1.75Z"/><path class="cls-2" d="M29.86,43,25.25,44.7a1.57,1.57,0,0,0-1,1.32v3.57a1.38,1.38,0,0,1-1,1.23L0,60v5.36l23.39-9.16a1.53,1.53,0,0,0,.95-1.32V51.3a1.4,1.4,0,0,1,.91-1.22l4.61-1.75Z"/><rect class="cls-5" y="65.32" width="78.37" height="13.06"/><path class="cls-4" d="M21.25,71.52l-.11.58a3.41,3.41,0,0,1-1,1.64,1.7,1.7,0,0,1-.81.5c-.18,0-.27-.19-.26-.49A4.23,4.23,0,0,1,19.6,72a1.45,1.45,0,0,1,1-.78.86.86,0,0,1,.61.26m1.89-3.73-1.22.14-.51,2.67a2,2,0,0,0-.89-.23c-1.42,0-2.64,1.66-2.68,3.62,0,.88.32,1.42.92,1.42a2.42,2.42,0,0,0,1.3-.56,3.08,3.08,0,0,0,.59-.61c.06-.09.15-.22.25-.4l-.24,1.39H21.8Z"/><path class="cls-4" d="M26.36,71.65a.94.94,0,0,1-.07.28l-1.61.89a3.18,3.18,0,0,1,.59-1.22.94.94,0,0,1,.69-.39c.26,0,.4.15.4.44m1.16-.28c0-.64-.43-1-1.31-1-1.57,0-2.68,1.36-2.72,3.31,0,1.11.4,1.66,1.3,1.66A2.74,2.74,0,0,0,26.07,75a4.15,4.15,0,0,0,.54-.33c.26-.19.39-.27.68-.51l-.45-.72a4.83,4.83,0,0,1-1.1.71,1.87,1.87,0,0,1-.58.13.58.58,0,0,1-.45-.24.91.91,0,0,1-.12-.42l2.07-1.09a1.31,1.31,0,0,0,.86-1.19"/><path class="cls-4" d="M31.63,70.67a3.35,3.35,0,0,0-1.36-.28c-1.13,0-1.78.51-1.81,1.38a1.27,1.27,0,0,0,.25.75,4.83,4.83,0,0,0,.39.41l.55.49c.25.22.34.37.33.55s-.23.41-.61.41a3.25,3.25,0,0,1-1.09-.26l-.36,1a5.55,5.55,0,0,0,.93.2,4.36,4.36,0,0,0,.76.06A1.47,1.47,0,0,0,31.27,74c0-.49-.2-.81-.88-1.4-.54-.44-.6-.5-.68-.65a.36.36,0,0,1-.06-.2c0-.23.23-.36.62-.36a1.83,1.83,0,0,1,1,.31Z"/><path class="cls-4" d="M35.65,71.52l-.1.58a3.52,3.52,0,0,1-1,1.64,1.7,1.7,0,0,1-.81.5c-.17,0-.27-.19-.26-.49A4.23,4.23,0,0,1,34,72a1.47,1.47,0,0,1,1-.78.86.86,0,0,1,.61.26m1.9-3.73-1.23.14-.51,2.67a2,2,0,0,0-.89-.23c-1.42,0-2.64,1.66-2.68,3.62,0,.88.32,1.42.92,1.42a2.42,2.42,0,0,0,1.3-.56,3.08,3.08,0,0,0,.59-.61c.06-.09.15-.22.26-.4l-.25,1.39H36.2Z"/><path class="cls-4" d="M40.75,71.65a.67.67,0,0,1-.06.28l-1.61.89a3,3,0,0,1,.59-1.22.94.94,0,0,1,.69-.39c.26,0,.4.15.39.44m1.17-.28c0-.64-.43-1-1.31-1-1.57,0-2.68,1.36-2.72,3.31,0,1.11.4,1.66,1.3,1.66A2.74,2.74,0,0,0,40.47,75,4.15,4.15,0,0,0,41,74.7c.26-.19.39-.27.68-.51l-.45-.72a4.62,4.62,0,0,1-1.1.71,1.87,1.87,0,0,1-.58.13.58.58,0,0,1-.45-.24.91.91,0,0,1-.12-.42l2.07-1.09a1.31,1.31,0,0,0,.86-1.19"/><polygon class="cls-4" points="48.67 70.34 48.1 70.34 45.65 71.23 45.92 72.18 47.22 71.68 46.58 75.23 47.78 75.23 48.67 70.34"/><path class="cls-4" d="M53,73.44a1.18,1.18,0,0,1-1.2,1c-.57,0-.95-.33-.93-.8a1.53,1.53,0,0,1,.69-1.12l.57-.38.61.58a.89.89,0,0,1,.26.68M53.28,70a.8.8,0,0,1-.35.65l-.59.38L52,70.53a.79.79,0,0,1-.17-.51.78.78,0,0,1,.85-.69.58.58,0,0,1,.62.62m1.27-.24c0-.78-.61-1.26-1.69-1.26-1.34,0-2.29.63-2.32,1.53a1.78,1.78,0,0,0,.5,1.19l.43.45-.86.56a2.28,2.28,0,0,0-1,1.68c0,1,.64,1.49,1.9,1.49,1.62,0,2.75-.73,2.77-1.8a1.86,1.86,0,0,0-.68-1.37l-.66-.56.65-.45a2.06,2.06,0,0,0,.84-.9,1.43,1.43,0,0,0,.13-.56"/><path class="cls-4" d="M59,70h-3l-.62,3.44H56a2.13,2.13,0,0,1,.92.24.83.83,0,0,1,.3.75A1.52,1.52,0,0,1,55.77,76a2.75,2.75,0,0,1-1.07-.27l-.36.95a3.38,3.38,0,0,0,1.33.28,2.8,2.8,0,0,0,2.77-2.67,1.54,1.54,0,0,0-.78-1.51,2.58,2.58,0,0,0-1-.22L57,71H58.8Z"/><path class="cls-4" d="M63.35,70H60.29l-.61,3.44h.64a2,2,0,0,1,.91.24.83.83,0,0,1,.31.75A1.52,1.52,0,0,1,60.14,76a2.71,2.71,0,0,1-1.07-.27l-.36.95a3.38,3.38,0,0,0,1.33.28,2.8,2.8,0,0,0,2.77-2.67A1.54,1.54,0,0,0,62,72.73a2.58,2.58,0,0,0-1-.22L61.32,71h1.84Z"/></g></g></svg>